<svg id="Layer_1" data-name="Layer 1" xmlns="http://www.w3.org/2000/svg" viewBox="0 0 512 512"><defs><style>.cls-1{fill:#141f38;}</style></defs><title>stars_style_1</title><path class="cls-1" d="M64,44.8A19.2,19.2,0,1,1,44.8,25.6,19.2,19.2,0,0,1,64,44.8ZM460.8,384a12.8,12.8,0,1,0,12.8,12.8A12.8,12.8,0,0,0,460.8,384Zm-224-89.6A19.2,19.2,0,1,0,256,313.6,19.2,19.2,0,0,0,236.8,294.4Zm198.4-256A38.4,38.4,0,1,0,473.6,0,38.41,38.41,0,0,0,435.2,38.4ZM268.8,473.6a38.4,38.4,0,1,0,38.4-38.4A38.41,38.41,0,0,0,268.8,473.6ZM409.6,140.8a12.8,12.8,0,1,0,12.8,12.8A12.8,12.8,0,0,0,409.6,140.8ZM64,217.6a12.8,12.8,0,1,0,12.8,12.8A12.8,12.8,0,0,0,64,217.6ZM19.2,448a19.2,19.2,0,1,0,19.2,19.2A19.2,19.2,0,0,0,19.2,448ZM222.72,166.4l46.08-25.6-46.08-30.72L192,64l-30.72,46.08L115.2,140.8l46.08,25.6L192,217.6ZM409.6,302.93,448,281.6,409.6,256,384,217.6,358.4,256,320,281.6l38.4,21.33L384,345.6Zm-256,102.4L192,384l-38.4-25.6L128,320l-25.6,38.4L64,384l38.4,21.33L128,448ZM281.6,38.4a12.8,12.8,0,1,0,12.8,12.8A12.8,12.8,0,0,0,281.6,38.4Z"/></svg>